<svg xmlns="http://www.w3.org/2000/svg" xmlns:xlink="http://www.w3.org/1999/xlink" width="500" zoomAndPan="magnify" viewBox="0 0 375 374.999991" height="500" preserveAspectRatio="xMidYMid meet" version="1.0"><defs><g/><clipPath id="5739d1ba49"><path d="M 50.984375 50.984375 L 324.015625 50.984375 L 324.015625 324.015625 L 50.984375 324.015625 Z M 50.984375 50.984375 " clip-rule="nonzero"/></clipPath><clipPath id="fbe2d193d4"><path d="M 187.5 50.984375 C 112.105469 50.984375 50.984375 112.105469 50.984375 187.5 C 50.984375 262.894531 112.105469 324.015625 187.5 324.015625 C 262.894531 324.015625 324.015625 262.894531 324.015625 187.5 C 324.015625 112.105469 262.894531 50.984375 187.5 50.984375 Z M 187.5 50.984375 " clip-rule="nonzero"/></clipPath><clipPath id="60b1615e6a"><path d="M 45.28125 45.28125 L 329.53125 45.28125 L 329.53125 329.53125 L 45.28125 329.53125 Z M 45.28125 45.28125 " clip-rule="nonzero"/></clipPath></defs><g clip-path="url(#5739d1ba49)"><g clip-path="url(#fbe2d193d4)"><path fill="#ffffff" d="M 50.984375 50.984375 L 324.015625 50.984375 L 324.015625 324.015625 L 50.984375 324.015625 Z M 50.984375 50.984375 " fill-opacity="1" fill-rule="nonzero"/></g></g><g clip-path="url(#60b1615e6a)"><path fill="#4f8686" d="M 187.496094 45.28125 C 109.03125 45.28125 45.28125 109.03125 45.28125 187.496094 C 45.28125 265.960938 109.03125 329.707031 187.496094 329.707031 C 265.960938 329.707031 329.707031 265.960938 329.707031 187.496094 C 329.707031 109.03125 265.960938 45.28125 187.496094 45.28125 Z M 187.496094 51.464844 C 262.703125 51.464844 323.527344 112.289062 323.527344 187.496094 C 323.527344 262.703125 262.703125 323.527344 187.496094 323.527344 C 112.289062 323.527344 51.464844 262.703125 51.464844 187.496094 C 51.464844 112.289062 112.289062 51.464844 187.496094 51.464844 Z M 187.496094 51.464844 " fill-opacity="1" fill-rule="nonzero"/></g><g fill="#629696" fill-opacity="1"><g transform="translate(100.495123, 245.879721)"><g><path d="M 3.625 -22.796875 C 3.625 -25.367188 4.445312 -27.800781 6.09375 -30.09375 C 7.738281 -32.382812 9.847656 -34.414062 12.421875 -36.1875 C 14.992188 -37.957031 17.644531 -39.363281 20.375 -40.40625 C 23.113281 -41.457031 25.570312 -41.984375 27.75 -41.984375 C 29.113281 -41.984375 30.335938 -41.5 31.421875 -40.53125 C 32.515625 -39.570312 33.0625 -38.40625 33.0625 -37.03125 C 33.0625 -34.945312 32.796875 -32.757812 32.265625 -30.46875 C 31.742188 -28.175781 31.203125 -25.898438 30.640625 -23.640625 C 30.078125 -21.390625 29.796875 -19.21875 29.796875 -17.125 C 29.796875 -13.914062 30.519531 -11.203125 31.96875 -8.984375 C 33.414062 -6.773438 35.628906 -5.671875 38.609375 -5.671875 C 40.773438 -5.671875 43.1875 -6.375 45.84375 -7.78125 C 48.5 -9.1875 51.148438 -11.132812 53.796875 -13.625 C 56.453125 -16.125 58.882812 -19 61.09375 -22.25 C 63.3125 -25.507812 65.082031 -28.96875 66.40625 -32.625 C 67.738281 -36.289062 68.40625 -40.015625 68.40625 -43.796875 C 68.40625 -47.328125 67.175781 -50.097656 64.71875 -52.109375 C 62.269531 -54.117188 59.316406 -55.125 55.859375 -55.125 C 52.398438 -55.125 49.257812 -54.742188 46.4375 -53.984375 C 43.625 -53.222656 40.890625 -52.457031 38.234375 -51.6875 C 35.585938 -50.925781 32.734375 -50.546875 29.671875 -50.546875 C 26.140625 -50.546875 23.40625 -51.507812 21.46875 -53.4375 C 19.539062 -55.375 18.578125 -57.707031 18.578125 -60.4375 C 18.578125 -64.132812 19.863281 -67.25 22.4375 -69.78125 C 25.007812 -72.320312 28.40625 -74.515625 32.625 -76.359375 C 36.851562 -78.210938 41.5 -79.882812 46.5625 -81.375 C 51.632812 -82.863281 56.679688 -84.347656 61.703125 -85.828125 C 66.734375 -87.316406 71.359375 -89.023438 75.578125 -90.953125 C 79.804688 -92.890625 83.207031 -95.203125 85.78125 -97.890625 C 88.351562 -100.585938 89.640625 -103.867188 89.640625 -107.734375 C 89.640625 -109.179688 89.195312 -110.566406 88.3125 -111.890625 C 87.425781 -113.222656 85.976562 -113.890625 83.96875 -113.890625 C 81.957031 -113.890625 79.644531 -113.125 77.03125 -111.59375 C 74.414062 -110.0625 71.476562 -108.191406 68.21875 -105.984375 C 64.96875 -103.773438 61.3125 -101.539062 57.25 -99.28125 C 53.1875 -97.03125 48.703125 -95.140625 43.796875 -93.609375 C 38.890625 -92.085938 33.539062 -91.328125 27.75 -91.328125 C 24.613281 -91.328125 21.617188 -91.75 18.765625 -92.59375 C 15.910156 -93.4375 13.578125 -94.617188 11.765625 -96.140625 C 9.953125 -97.671875 9.046875 -99.484375 9.046875 -101.578125 C 9.046875 -103.753906 9.445312 -106.085938 10.25 -108.578125 C 11.050781 -111.066406 12.054688 -113.4375 13.265625 -115.6875 C 14.472656 -117.945312 15.660156 -119.800781 16.828125 -121.25 C 17.992188 -122.695312 18.941406 -123.421875 19.671875 -123.421875 C 20.796875 -123.421875 21.835938 -123.175781 22.796875 -122.6875 C 23.765625 -122.207031 24.910156 -121.644531 26.234375 -121 C 27.566406 -120.351562 29.316406 -119.789062 31.484375 -119.3125 C 33.660156 -118.832031 36.476562 -118.59375 39.9375 -118.59375 C 43.789062 -118.59375 47.304688 -118.875 50.484375 -119.4375 C 53.660156 -120 56.738281 -120.660156 59.71875 -121.421875 C 62.695312 -122.191406 65.773438 -122.859375 68.953125 -123.421875 C 72.128906 -123.984375 75.644531 -124.265625 79.5 -124.265625 C 84.25 -124.265625 88.171875 -122.675781 91.265625 -119.5 C 94.359375 -116.320312 95.90625 -112.359375 95.90625 -107.609375 C 95.90625 -101.898438 94.816406 -96.992188 92.640625 -92.890625 C 90.472656 -88.785156 87.660156 -85.304688 84.203125 -82.453125 C 80.742188 -79.597656 77.0625 -77.222656 73.15625 -75.328125 C 69.257812 -73.441406 65.582031 -71.851562 62.125 -70.5625 C 58.664062 -69.28125 55.847656 -68.113281 53.671875 -67.0625 C 51.503906 -66.019531 50.421875 -64.898438 50.421875 -63.703125 C 50.421875 -62.890625 50.742188 -62.265625 51.390625 -61.828125 C 52.035156 -61.390625 52.84375 -61.171875 53.8125 -61.171875 C 55.894531 -61.171875 57.640625 -61.328125 59.046875 -61.640625 C 60.460938 -61.960938 61.851562 -62.328125 63.21875 -62.734375 C 64.582031 -63.140625 66.1875 -63.5 68.03125 -63.8125 C 69.882812 -64.132812 72.300781 -64.296875 75.28125 -64.296875 C 79.539062 -64.296875 83.457031 -63.367188 87.03125 -61.515625 C 90.613281 -59.671875 93.507812 -57.039062 95.71875 -53.625 C 97.9375 -50.207031 99.046875 -46.207031 99.046875 -41.625 C 99.046875 -34.300781 97.535156 -28.003906 94.515625 -22.734375 C 91.503906 -17.472656 87.460938 -13.148438 82.390625 -9.765625 C 77.328125 -6.390625 71.640625 -3.914062 65.328125 -2.34375 C 59.015625 -0.78125 52.597656 0 46.078125 0 C 41.171875 0 36.203125 -0.582031 31.171875 -1.75 C 26.148438 -2.914062 21.566406 -4.5625 17.421875 -6.6875 C 13.285156 -8.820312 9.953125 -11.253906 7.421875 -13.984375 C 4.890625 -16.722656 3.625 -19.660156 3.625 -22.796875 Z M 3.625 -22.796875 "/></g></g></g><g fill="#83bbbb" fill-opacity="1"><g transform="translate(185.183803, 245.879721)"><g><path d="M 38.484375 1.8125 C 33.421875 1.8125 28.65625 1.046875 24.1875 -0.484375 C 19.726562 -2.015625 15.769531 -4.066406 12.3125 -6.640625 C 8.851562 -9.210938 6.132812 -12.164062 4.15625 -15.5 C 2.1875 -18.84375 1.203125 -22.320312 1.203125 -25.9375 C 1.203125 -27.382812 1.984375 -28.972656 3.546875 -30.703125 C 5.117188 -32.429688 7.148438 -34.140625 9.640625 -35.828125 C 12.140625 -37.515625 14.734375 -39.039062 17.421875 -40.40625 C 20.117188 -41.78125 22.632812 -42.890625 24.96875 -43.734375 C 27.300781 -44.578125 29.113281 -44.957031 30.40625 -44.875 C 32.25 -44.789062 33.8125 -44.164062 35.09375 -43 C 36.382812 -41.84375 36.867188 -40.097656 36.546875 -37.765625 C 36.148438 -34.628906 35.832031 -31.3125 35.59375 -27.8125 C 35.351562 -24.3125 35.59375 -21.03125 36.3125 -17.96875 C 37.039062 -14.914062 38.585938 -12.421875 40.953125 -10.484375 C 43.328125 -8.554688 46.847656 -7.59375 51.515625 -7.59375 C 54.648438 -7.59375 57.546875 -8.296875 60.203125 -9.703125 C 62.859375 -11.117188 65.007812 -13.070312 66.65625 -15.5625 C 68.300781 -18.050781 69.125 -20.828125 69.125 -23.890625 C 69.125 -27.992188 68.054688 -31.429688 65.921875 -34.203125 C 63.796875 -36.972656 61.023438 -39.28125 57.609375 -41.125 C 54.191406 -42.976562 50.472656 -44.507812 46.453125 -45.71875 C 40.492188 -47.570312 34.835938 -49.523438 29.484375 -51.578125 C 24.140625 -53.628906 19.414062 -56.101562 15.3125 -59 C 11.21875 -61.894531 7.984375 -65.492188 5.609375 -69.796875 C 3.234375 -74.097656 2.046875 -79.425781 2.046875 -85.78125 C 2.046875 -90.84375 3.03125 -95.582031 5 -100 C 6.976562 -104.425781 9.675781 -108.328125 13.09375 -111.703125 C 16.507812 -115.085938 20.46875 -117.722656 24.96875 -119.609375 C 29.476562 -121.503906 34.265625 -122.453125 39.328125 -122.453125 C 42.460938 -122.453125 45.457031 -122.046875 48.3125 -121.234375 C 51.164062 -120.429688 54.082031 -119.628906 57.0625 -118.828125 C 60.039062 -118.023438 63.378906 -117.625 67.078125 -117.625 C 69.890625 -117.625 72.117188 -118.023438 73.765625 -118.828125 C 75.421875 -119.628906 76.832031 -120.429688 78 -121.234375 C 79.164062 -122.046875 80.347656 -122.453125 81.546875 -122.453125 C 82.992188 -122.453125 83.898438 -121.644531 84.265625 -120.03125 C 84.628906 -118.425781 84.566406 -116.359375 84.078125 -113.828125 C 83.597656 -111.296875 82.773438 -108.597656 81.609375 -105.734375 C 80.441406 -102.878906 78.972656 -100.1875 77.203125 -97.65625 C 75.441406 -95.125 73.472656 -93.050781 71.296875 -91.4375 C 69.128906 -89.832031 66.796875 -89.03125 64.296875 -89.03125 C 59.878906 -89.03125 55.800781 -89.753906 52.0625 -91.203125 C 48.320312 -92.648438 44.722656 -94.335938 41.265625 -96.265625 C 37.804688 -98.203125 34.285156 -99.894531 30.703125 -101.34375 C 27.117188 -102.789062 23.316406 -103.515625 19.296875 -103.515625 C 17.046875 -103.515625 15.132812 -102.6875 13.5625 -101.03125 C 12 -99.382812 11.21875 -97.394531 11.21875 -95.0625 C 11.21875 -91.84375 12.484375 -89.207031 15.015625 -87.15625 C 17.546875 -85.113281 20.84375 -83.488281 24.90625 -82.28125 C 28.96875 -81.070312 33.390625 -80.144531 38.171875 -79.5 C 42.960938 -78.851562 47.648438 -78.332031 52.234375 -77.9375 C 58.992188 -77.289062 64.925781 -75.457031 70.03125 -72.4375 C 75.132812 -69.425781 79.113281 -65.488281 81.96875 -60.625 C 84.832031 -55.757812 86.265625 -50.226562 86.265625 -44.03125 C 86.265625 -38.644531 85.335938 -33.253906 83.484375 -27.859375 C 81.628906 -22.472656 78.789062 -17.546875 74.96875 -13.078125 C 71.15625 -8.617188 66.234375 -5.019531 60.203125 -2.28125 C 54.171875 0.445312 46.929688 1.8125 38.484375 1.8125 Z M 38.484375 1.8125 "/></g></g></g></svg>